<?xml version="1.0" standalone="no"?>
<!DOCTYPE
    svg
    PUBLIC "-//W3C//DTD SVG 1.1//EN" "http://www.w3.org/Graphics/SVG/1.1/DTD/svg11.dtd"
><svg
    t="1710388993635"
    class="icon"
    viewBox="0 0 1024 1024"
    version="1.1"
    xmlns="http://www.w3.org/2000/svg"
    p-id="2167"
    width="128"
    height="128"
    xmlns:xlink="http://www.w3.org/1999/xlink"
>
    <path
        d="M434.904681 508.741327v163.627007s-1.608537 26.374455-5.962679 52.91531a133.980012 133.980012 0 0 1-20.883244 53.053978s26.235788-21.271511 38.826748-51.944642a245.967446 245.967446 0 0 0 17.888037-65.894537l2.995206-126.824798 94.29353-0.998402-0.998402 194.716139s2.939739 52.499309-17.888037 90.882323c-16.640035 30.728597-55.965983 35.609674-58.656122 36.940877-25.265119 12.59096-169.977954 17.111502-191.831867 45.926495-16.640035 22.186713 34.500339 42.543022 38.826748 43.957425 7.460282 2.468272 71.80175 25.930721 76.516426 33.945671 9.124286 19.025106-150.48138 44.789427-141.135227 44.928094 11.814425 0.194134 194.133738-18.96964 186.867589-50.918506-1.941337-8.597351-30.50673-17.139236-54.662514-24.960052-17.333369-5.546678-31.8934-11.869891-35.776074-12.979228-27.40059-7.904016-38.161146-27.289657-16.640035-31.810199s47.146765-4.520543 68.335076-6.156813c23.906183-1.830404 42.959023-5.102944 48.699834-5.990412a212.853777 212.853777 0 0 0 50.696639-14.976032c24.960052-10.400022 41.600087-27.456057 46.730764-31.948866 29.619262-25.930721 32.2262-98.592205 30.811798-118.837581-0.277334-12.285892 0-192.442001 0-192.442001l102.253013-2.412805s2.606939 81.813504 2.606939 130.901606c0 75.823091 45.898762 109.103161 46.397963 109.103161 2.579205 0-14.754164-13.450695-14.754164-98.009805 0-43.43049-2.385072-142.355497-2.385072-142.355496v-27.733391s-24.460851 0-31.144598 17.638437c-47.146765 0.138667-102.918614 1.913604-102.918614 1.913603l0.305067-38.993147s83.893508-0.887469 92.213525-0.887469c0 0-6.240013-39.298215-33.280069-13.866695H511.254707c-20.106709-0.804268-26.679522 5.546678-26.98459 14.781897l78.51323 0.693335v37.967012h-97.066868s-9.928554-11.953092-30.811798-12.951493z"
        fill="#000000"
        p-id="2168"
    ></path>
    <path
        d="M513.833912 554.029954c-3.18934 19.025106-29.896596 58.240121 0.998402 58.240122h0.499201c29.730195 0 3.43894-39.741949 0.249601-58.073721a0.887469 0.887469 0 0 0-1.747204-0.166401zM513.833912 643.858408c-3.18934 19.025106-29.896596 58.240121 0.998402 58.240121h0.499201c29.730195 0 3.43894-39.741949 0.249601-58.073721a0.887469 0.887469 0 0 0-1.747204-0.1664zM643.626182 554.029954c-3.217073 19.025106-29.896596 58.240121 0.998403 58.240122h0.499201c29.730195 0 3.43894-39.741949 0.2496-58.073721a0.887469 0.887469 0 0 0-1.747204-0.166401zM643.626182 643.858408c-3.217073 19.025106-29.896596 58.240121 0.998403 58.240121h0.499201c29.730195 0 3.43894-39.741949 0.2496-58.073721a0.887469 0.887469 0 0 0-1.747204-0.1664z"
        fill="#000000"
        p-id="2169"
    ></path>
    <path
        d="M388.478984 198.709747A12.951494 12.951494 0 0 1 393.332328 183.040381l175.635566-120.640251a9.40162 9.40162 0 0 1 11.342957 0.305067l173.971562 126.075996a8.320017 8.320017 0 0 1 2.995206 9.179753l-6.822414 20.966443a6.877881 6.877881 0 0 1-10.788289 3.300274L578.619114 96.429001a9.373886 9.373886 0 0 0-11.564824 0l-158.08033 126.214663a7.876283 7.876283 0 0 1-12.091758-3.27254z"
        fill="#000000"
        p-id="2170"
    ></path>
    <path
        d="M666.894498 181.542778h-186.645723c-7.959483 0-10.843756 5.546678-10.843755 12.036292l-0.665602 51.667308c0 175.385965 210.052704 178.547572 210.052704-2.357339l-0.693334-48.893968a11.093356 11.093356 0 0 0-11.20429-12.452293zM493.311203 251.541857l0.3328-45.288627c0-2.912006 1.053869-5.047477 4.381876-5.047477h153.448853c3.688541 0 4.964277 2.024538 4.964277 5.546678l-0.942935 44.844893c0 139.27709-162.184871 137.585353-162.184871-0.055467zM604.799435 0c4.603743 0 120.778918 74.408688 125.354928 78.624164s1.913604 28.70406-8.846952 27.15099c-9.207486-1.331203-126.630664-94.29353-126.630664-94.29353S600.195692 0 604.799435 0zM552.105992 0c-4.57601 0-120.778918 74.408688-125.354928 78.624164s-1.885871 28.70406 8.846952 27.15099c9.235219-1.331203 126.658397-94.29353 126.658397-94.29353S556.571068 0 552.105992 0z"
        fill="#000000"
        p-id="2171"
    ></path>
</svg>